<svg width="722" height="273" viewBox="0 0 722 273" fill="none" xmlns="http://www.w3.org/2000/svg">
<path d="M0.107955 222.534V173.188L107.366 4.18181H151.216V71.1705H125.776L63.0057 170.631V172.676H218.332V222.534H0.107955ZM126.543 266V207.449L127.821 185.844V4.18181H187.011V266H126.543ZM359.788 272.392C336.947 272.392 317.26 266.98 300.726 256.156C284.192 245.247 271.45 229.608 262.501 209.239C253.553 188.784 249.121 164.196 249.206 135.474C249.291 106.753 253.766 82.3778 262.629 62.3494C271.578 42.2358 284.277 26.9375 300.726 16.4545C317.26 5.88636 336.947 0.602263 359.788 0.602263C382.629 0.602263 402.317 5.88636 418.851 16.4545C435.47 26.9375 448.254 42.2358 457.203 62.3494C466.152 82.4631 470.584 106.838 470.499 135.474C470.499 164.281 466.024 188.912 457.075 209.366C448.126 229.821 435.385 245.46 418.851 256.284C402.402 267.023 382.714 272.392 359.788 272.392ZM359.788 220.616C373.425 220.616 384.462 213.67 392.899 199.778C401.337 185.801 405.513 164.366 405.428 135.474C405.428 116.554 403.51 100.957 399.675 88.6847C395.839 76.3267 390.513 67.1221 383.695 61.071C376.876 55.0199 368.908 51.9943 359.788 51.9943C346.237 51.9943 335.286 58.8551 326.933 72.5767C318.581 86.2131 314.362 107.179 314.277 135.474C314.192 154.651 316.024 170.545 319.774 183.159C323.609 195.773 328.979 205.19 335.882 211.412C342.786 217.548 350.754 220.616 359.788 220.616ZM503.545 222.534V173.188L610.804 4.18181H654.653V71.1705H629.213L566.443 170.631V172.676H721.77V222.534H503.545ZM629.98 266V207.449L631.259 185.844V4.18181H690.449V266H629.98Z" fill="#2E245E"/>
<path d="M0.107955 222.534H-1.89204V224.534H0.107955V222.534ZM0.107955 173.188L-1.58068 172.116L-1.89204 172.606V173.188H0.107955ZM107.366 4.18181V2.18181H106.267L105.678 3.11013L107.366 4.18181ZM151.216 4.18181H153.216V2.18181H151.216V4.18181ZM151.216 71.1705V73.1705H153.216V71.1705H151.216ZM125.776 71.1705V69.1705H124.673L124.084 70.103L125.776 71.1705ZM63.0057 170.631L61.3143 169.563L61.0057 170.052V170.631H63.0057ZM63.0057 172.676H61.0057V174.676H63.0057V172.676ZM218.332 172.676H220.332V170.676H218.332V172.676ZM218.332 222.534V224.534H220.332V222.534H218.332ZM126.543 266H124.543V268H126.543V266ZM126.543 207.449L124.546 207.331L124.543 207.39V207.449H126.543ZM127.821 185.844L129.818 185.962L129.821 185.903V185.844H127.821ZM127.821 4.18181V2.18181H125.821V4.18181H127.821ZM187.011 4.18181H189.011V2.18181H187.011V4.18181ZM187.011 266V268H189.011V266H187.011ZM2.10796 222.534V173.188H-1.89204V222.534H2.10796ZM1.79659 174.259L109.055 5.25349L105.678 3.11013L-1.58068 172.116L1.79659 174.259ZM107.366 6.18181H151.216V2.18181H107.366V6.18181ZM149.216 4.18181V71.1705H153.216V4.18181H149.216ZM151.216 69.1705H125.776V73.1705H151.216V69.1705ZM124.084 70.103L61.3143 169.563L64.697 171.698L127.467 72.2379L124.084 70.103ZM61.0057 170.631V172.676H65.0057V170.631H61.0057ZM63.0057 174.676H218.332V170.676H63.0057V174.676ZM216.332 172.676V222.534H220.332V172.676H216.332ZM218.332 220.534H0.107955V224.534H218.332V220.534ZM128.543 266V207.449H124.543V266H128.543ZM128.539 207.567L129.818 185.962L125.825 185.726L124.546 207.331L128.539 207.567ZM129.821 185.844V4.18181H125.821V185.844H129.821ZM127.821 6.18181H187.011V2.18181H127.821V6.18181ZM185.011 4.18181V266H189.011V4.18181H185.011ZM187.011 264H126.543V268H187.011V264ZM300.726 256.156L299.624 257.826L299.63 257.83L300.726 256.156ZM262.501 209.239L260.669 210.04L260.67 210.043L262.501 209.239ZM249.206 135.474L247.206 135.468L247.206 135.468L249.206 135.474ZM262.629 62.3494L260.802 61.5364L260.8 61.54L262.629 62.3494ZM300.726 16.4545L301.801 18.1412L301.803 18.1397L300.726 16.4545ZM418.851 16.4545L417.774 18.1398L417.784 18.1461L418.851 16.4545ZM457.203 62.3494L459.03 61.5364L459.03 61.5364L457.203 62.3494ZM470.499 135.474L468.499 135.468V135.474H470.499ZM457.075 209.366L455.243 208.565L455.243 208.565L457.075 209.366ZM418.851 256.284L419.944 257.959L419.946 257.957L418.851 256.284ZM392.899 199.778L394.609 200.817L394.611 200.812L392.899 199.778ZM405.428 135.474L403.428 135.474L403.428 135.48L405.428 135.474ZM399.675 88.6847L397.765 89.2775L397.766 89.2812L399.675 88.6847ZM383.695 61.071L385.022 59.5752L385.022 59.5752L383.695 61.071ZM326.933 72.5767L328.639 73.6213L328.642 73.6166L326.933 72.5767ZM314.277 135.474L316.277 135.483L316.277 135.48L314.277 135.474ZM319.774 183.159L317.857 183.729L317.861 183.741L319.774 183.159ZM335.882 211.412L334.543 212.898L334.553 212.907L335.882 211.412ZM359.788 270.392C337.274 270.392 317.981 265.062 301.821 254.483L299.63 257.83C316.538 268.898 336.62 274.392 359.788 274.392V270.392ZM301.827 254.487C285.653 243.815 273.146 228.496 264.333 208.434L260.67 210.043C269.754 230.72 282.73 246.679 299.624 257.826L301.827 254.487ZM264.334 208.437C255.523 188.299 251.121 164 251.206 135.48L247.206 135.468C247.12 164.392 251.582 189.269 260.669 210.04L264.334 208.437ZM251.206 135.48C251.291 106.953 255.736 82.8685 264.458 63.1588L260.8 61.54C251.796 81.8872 247.292 106.552 247.206 135.468L251.206 135.48ZM264.457 63.1624C273.267 43.3599 285.724 28.3867 301.801 18.1412L299.651 14.7679C282.83 25.4883 269.889 41.1117 260.802 61.5364L264.457 63.1624ZM301.803 18.1397C317.966 7.80899 337.265 2.60226 359.788 2.60226V-1.39774C336.63 -1.39774 316.554 3.96372 299.649 14.7694L301.803 18.1397ZM359.788 2.60226C382.311 2.60226 401.611 7.80899 417.774 18.1397L419.928 14.7694C403.022 3.96372 382.947 -1.39774 359.788 -1.39774V2.60226ZM417.784 18.1461C434.029 28.393 446.568 43.3653 455.376 63.1624L459.03 61.5364C449.941 41.1063 436.911 25.482 419.918 14.763L417.784 18.1461ZM455.376 63.1624C464.181 82.9532 468.583 107.033 468.499 135.468L472.499 135.48C472.584 106.643 468.123 81.9729 459.03 61.5364L455.376 63.1624ZM468.499 135.474C468.499 164.082 464.054 188.425 455.243 208.565L458.908 210.168C467.994 189.399 472.499 164.48 472.499 135.474H468.499ZM455.243 208.565C446.429 228.711 433.924 244.027 417.755 254.611L419.946 257.957C436.846 246.894 449.824 230.931 458.908 210.168L455.243 208.565ZM417.758 254.609C401.685 265.102 382.392 270.392 359.788 270.392V274.392C383.037 274.392 403.119 268.943 419.944 257.959L417.758 254.609ZM359.788 222.616C374.267 222.616 385.89 215.172 394.609 200.817L391.19 198.74C383.033 212.169 372.582 218.616 359.788 218.616V222.616ZM394.611 200.812C403.334 186.363 407.513 164.482 407.428 135.469L403.428 135.48C403.512 164.251 399.339 185.24 391.187 198.745L394.611 200.812ZM407.428 135.474C407.428 116.438 405.5 100.622 401.584 88.0881L397.766 89.2812C401.519 101.293 403.428 116.67 403.428 135.474H407.428ZM401.585 88.0919C397.685 75.5241 392.205 65.9496 385.022 59.5752L382.367 62.5669C388.821 68.2947 393.994 77.1293 397.765 89.2775L401.585 88.0919ZM385.022 59.5752C377.838 53.1991 369.397 49.9943 359.788 49.9943V53.9943C368.419 53.9943 375.915 56.8406 382.367 62.5669L385.022 59.5752ZM359.788 49.9943C345.4 49.9943 333.861 57.3487 325.225 71.5368L328.642 73.6166C336.71 60.3615 347.075 53.9943 359.788 53.9943V49.9943ZM325.228 71.5321C316.587 85.639 312.363 107.051 312.277 135.468L316.277 135.48C316.362 107.307 320.575 86.7871 328.639 73.6213L325.228 71.5321ZM312.277 135.466C312.191 154.757 314.032 170.863 317.857 183.729L321.691 182.589C318.016 170.228 316.192 154.544 316.277 135.483L312.277 135.466ZM317.861 183.741C321.76 196.564 327.279 206.351 334.543 212.898L337.221 209.926C330.678 204.029 325.459 194.981 321.688 182.577L317.861 183.741ZM334.553 212.907C341.814 219.361 350.252 222.616 359.788 222.616V218.616C351.256 218.616 343.757 215.736 337.211 209.917L334.553 212.907ZM503.545 222.534H501.545V224.534H503.545V222.534ZM503.545 173.188L501.857 172.116L501.545 172.606V173.188H503.545ZM610.804 4.18181V2.18181H609.704L609.115 3.11013L610.804 4.18181ZM654.653 4.18181H656.653V2.18181H654.653V4.18181ZM654.653 71.1705V73.1705H656.653V71.1705H654.653ZM629.213 71.1705V69.1705H628.11L627.522 70.103L629.213 71.1705ZM566.443 170.631L564.752 169.563L564.443 170.052V170.631H566.443ZM566.443 172.676H564.443V174.676H566.443V172.676ZM721.77 172.676H723.77V170.676H721.77V172.676ZM721.77 222.534V224.534H723.77V222.534H721.77ZM629.98 266H627.98V268H629.98V266ZM629.98 207.449L627.984 207.331L627.98 207.39V207.449H629.98ZM631.259 185.844L633.255 185.962L633.259 185.903V185.844H631.259ZM631.259 4.18181V2.18181H629.259V4.18181H631.259ZM690.449 4.18181H692.449V2.18181H690.449V4.18181ZM690.449 266V268H692.449V266H690.449ZM505.545 222.534V173.188H501.545V222.534H505.545ZM505.234 174.259L612.493 5.25349L609.115 3.11013L501.857 172.116L505.234 174.259ZM610.804 6.18181H654.653V2.18181H610.804V6.18181ZM652.653 4.18181V71.1705H656.653V4.18181H652.653ZM654.653 69.1705H629.213V73.1705H654.653V69.1705ZM627.522 70.103L564.752 169.563L568.135 171.698L630.904 72.2379L627.522 70.103ZM564.443 170.631V172.676H568.443V170.631H564.443ZM566.443 174.676H721.77V170.676H566.443V174.676ZM719.77 172.676V222.534H723.77V172.676H719.77ZM721.77 220.534H503.545V224.534H721.77V220.534ZM631.98 266V207.449H627.98V266H631.98ZM631.977 207.567L633.255 185.962L629.262 185.726L627.984 207.331L631.977 207.567ZM633.259 185.844V4.18181H629.259V185.844H633.259ZM631.259 6.18181H690.449V2.18181H631.259V6.18181ZM688.449 4.18181V266H692.449V4.18181H688.449ZM690.449 264H629.98V268H690.449V264Z" fill="#37268C"/>
</svg>
